<svg aria-hidden="true" style="position: absolute; width: 0; height: 0; overflow: hidden;" version="1.1" xmlns="http://www.w3.org/2000/svg" xmlns:xlink="http://www.w3.org/1999/xlink">
<defs>
<symbol id="icon-logo" viewBox="0 0 29 32">
<path fill="#00778b" style="fill: var(--color1, #00778b)" d="M6.761 2.324v1.86l0.509-0.048c0.28-0.026 0.886-0.068 1.347-0.093l0.838-0.045v-1.274l2.677 0.001c2.36 0.001 2.747 0.015 3.268 0.122 1.479 0.303 2.526 1.1 3.191 2.429 0.382 0.763 0.495 1.17 0.598 2.143 0.135 1.274-0.091 2.764-0.567 3.728-0.566 1.147-1.498 1.857-2.895 2.206-0.967 0.242-1.602 0.286-4.056 0.288l-2.217 0.001v-6.666l-0.411 0.040c-0.226 0.022-0.832 0.088-1.347 0.146l-0.936 0.106v24.269h4.147c4.491 0 4.897-0.024 6.089-0.362 0.671-0.19 1.742-0.679 2.289-1.044 0.213-0.142 0.614-0.467 0.892-0.722 0.51-0.468 1.278-1.402 1.209-1.47-0.021-0.020-0.77-0.007-1.666 0.030l-1.629 0.067-0.361 0.241c-0.501 0.335-1.185 0.643-1.806 0.814-0.502 0.138-0.659 0.146-3.498 0.169l-2.973 0.024v-13.459l2.677 0.034c2.675 0.034 2.887 0.051 3.826 0.298 0.864 0.227 1.609 0.607 2.305 1.177 0.991 0.811 1.68 2.215 1.898 3.866 0.122 0.924 0.049 2.758-0.137 3.446-0.037 0.137-0.051 0.264-0.032 0.283 0.047 0.046 1.812-0.097 2.314-0.188l0.402-0.072 0.077-0.624c0.139-1.126 0.086-2.888-0.117-3.913-0.115-0.579-0.456-1.536-0.752-2.106-0.765-1.473-1.932-2.55-3.467-3.196l-0.592-0.249 0.457-0.204c1.696-0.758 2.776-2.165 3.268-4.255 0.169-0.719 0.183-0.879 0.186-2.196 0.003-1.252-0.014-1.502-0.147-2.095-0.695-3.104-2.82-4.946-6.108-5.294-0.419-0.044-2.21-0.072-4.713-0.072h-4.037v1.86zM10.703 4.281c-3.196 0.077-4.482 0.205-5.847 0.585-1.382 0.385-2.632 1.287-3.275 2.364-0.437 0.731-0.781 2.026-0.927 3.487-0.118 1.178-0.215 5.232-0.171 7.124 0.087 3.757 0.324 5.376 0.966 6.595 0.665 1.263 1.838 2.201 3.315 2.649 0.478 0.145 1.332 0.317 1.577 0.317h0.158l-0-1.244-0-1.244-0.41-0.118c-1.342-0.385-2.103-1.279-2.404-2.822-0.263-1.352-0.306-2.28-0.301-6.428 0.005-3.716 0.014-3.993 0.149-4.859 0.17-1.088 0.305-1.544 0.623-2.102 0.558-0.981 1.443-1.454 3.25-1.738 0.859-0.135 1.138-0.143 6.107-0.167 3.424-0.017 5.206-0.048 5.206-0.090 0-0.036-0.076-0.288-0.169-0.561-0.2-0.588-0.518-1.166-0.85-1.546l-0.24-0.275-2.343 0.010c-1.289 0.006-3.275 0.033-4.413 0.060zM21.542 4.368c0 0.018 0.072 0.245 0.16 0.503 0.168 0.493 0.365 1.487 0.366 1.84 0 0.189 0.022 0.211 0.247 0.248 0.978 0.162 1.701 0.463 2.192 0.915 0.618 0.569 0.84 1.333 0.844 2.91l0.002 0.921h2.714l-0.041-1.017c-0.081-2.007-0.451-3.386-1.152-4.298s-2.247-1.653-3.923-1.879c-1.056-0.143-1.408-0.178-1.408-0.141zM25.547 20.99c-0.003 1.825-0.16 2.467-0.749 3.069-0.511 0.522-1.344 0.843-2.73 1.051-1.151 0.173-3.311 0.231-7.867 0.211l-4.483-0.020v2.419l2.414 0.018c4.668 0.034 10.388-0.134 11.63-0.342 1.45-0.242 2.325-0.637 3.068-1.382 1.081-1.084 1.383-2.080 1.458-4.799l0.040-1.437h-2.779l-0.002 1.211z"></path>
</symbol>
</defs>
</svg>
